<svg width="31" height="21" viewBox="0 0 31 21" fill="none" xmlns="http://www.w3.org/2000/svg">
<path d="M11.591 20.0726L11.5827 20.0693L11.5564 20.0565C11.4031 19.9808 11.251 19.903 11.1002 19.8233C9.28703 18.8559 7.59254 17.7195 6.04488 16.4328C3.30399 14.1365 0.399902 10.7288 0.399902 6.53188C0.399902 3.4002 3.33496 0.916671 6.87751 0.916671C7.86232 0.91234 8.83554 1.10742 9.7248 1.4874C10.6141 1.86737 11.3965 2.42248 12.0139 3.11142C12.6314 2.42233 13.414 1.86715 14.3034 1.48716C15.1929 1.10718 16.1664 0.912179 17.1514 0.916671C20.6928 0.916671 23.6278 3.4002 23.6278 6.53188C23.6278 10.7299 20.7237 14.1375 17.9828 16.4318C16.4352 17.7184 14.7407 18.8549 12.9275 19.8223C12.7767 19.9023 12.6246 19.9804 12.4713 20.0565L12.4451 20.0693L12.4367 20.0736L12.4332 20.0747C12.304 20.1361 12.16 20.1683 12.0139 20.1683C11.8677 20.1683 11.7237 20.1361 11.5946 20.0747L11.591 20.0726Z" fill="white"/>
<path d="M22.4595 18.3026L25.8275 12.5882H23.5047V8.89065L20.0205 14.605H22.4595V18.3026ZM22.924 20.3194C21.853 20.3194 20.8464 20.1429 19.9044 19.79C18.9624 19.437 18.143 18.958 17.4461 18.353C16.7493 17.7479 16.1976 17.0364 15.7911 16.2185C15.3846 15.4006 15.1814 14.5266 15.1814 13.5966C15.1814 12.6666 15.3846 11.7927 15.7911 10.9747C16.1976 10.1568 16.7493 9.44528 17.4461 8.84023C18.143 8.23518 18.9624 7.75618 19.9044 7.40323C20.8464 7.05028 21.853 6.87381 22.924 6.87381C23.9951 6.87381 25.0016 7.05028 25.9437 7.40323C26.8857 7.75618 27.7051 8.23518 28.4019 8.84023C29.0988 9.44528 29.6504 10.1568 30.0569 10.9747C30.4634 11.7927 30.6667 12.6666 30.6667 13.5966C30.6667 14.5266 30.4634 15.4006 30.0569 16.2185C29.6504 17.0364 29.0988 17.7479 28.4019 18.353C27.7051 18.958 26.8857 19.437 25.9437 19.79C25.0016 20.1429 23.9951 20.3194 22.924 20.3194Z" fill="#894189"/>
<path d="M22.8537 17.8747L25.9156 12.6798H23.804V9.31842L20.6365 14.5133H22.8537V17.8747ZM23.2761 19.7082C22.3024 19.7082 21.3873 19.5478 20.5309 19.2269C19.6746 18.906 18.9296 18.4706 18.2961 17.9205C17.6627 17.3705 17.1611 16.7237 16.7916 15.9801C16.4221 15.2365 16.2373 14.442 16.2373 13.5966C16.2373 12.7511 16.4221 11.9566 16.7916 11.213C17.1611 10.4694 17.6627 9.82263 18.2961 9.27258C18.9296 8.72253 19.6746 8.28708 20.5309 7.96622C21.3873 7.64535 22.3024 7.48492 23.2761 7.48492C24.2498 7.48492 25.1648 7.64535 26.0212 7.96622C26.8776 8.28708 27.6225 8.72253 28.256 9.27258C28.8895 9.82263 29.391 10.4694 29.7605 11.213C30.1301 11.9566 30.3148 12.7511 30.3148 13.5966C30.3148 14.442 30.1301 15.2365 29.7605 15.9801C29.391 16.7237 28.8895 17.3705 28.256 17.9205C27.6225 18.4706 26.8776 18.906 26.0212 19.2269C25.1648 19.5478 24.2498 19.7082 23.2761 19.7082Z" fill="white"/>
</svg>
