<svg width="51" height="129" viewBox="0 0 51 129" fill="none" xmlns="http://www.w3.org/2000/svg">
<path d="M23.0438 109.216H27.457V101.23C29.5585 100.272 31.3658 98.1954 32.8789 95.0009C34.3919 91.8065 35.1485 87.0681 35.1485 80.7858C35.1485 76.3136 34.6441 72.2141 33.6354 68.4873C32.6267 64.7604 30.6092 61.5128 27.5831 58.7443C25.0613 56.6147 23.317 54.7513 22.3503 53.154C21.3837 51.5568 20.9003 49.374 20.9003 46.6055C20.9003 43.837 21.2891 41.6541 22.0666 40.0569C22.8442 38.4597 23.9685 37.6611 25.4395 37.6611C26.7845 37.6611 27.8353 38.4863 28.5918 40.1368C29.3483 41.7872 29.8947 43.837 30.231 46.286L34.2658 42.1333C33.8035 38.4065 32.9524 35.1588 31.7125 32.3903C30.4726 29.6218 29.0962 28.0778 27.5831 27.7584V19.7724H23.1699V27.7584C21.0684 28.9297 19.4293 31.2723 18.2524 34.7861C17.0756 38.3 16.4872 42.2398 16.4872 46.6055C16.4872 51.6101 17.0651 55.6563 18.2209 58.7443C19.3767 61.8322 21.1945 64.4942 23.6743 66.7303C26.3222 69.1794 28.161 71.3622 29.1907 73.2789C30.2205 75.1955 30.7353 77.6978 30.7353 80.7858C30.7353 84.2996 30.2415 86.8818 29.2538 88.5322C28.2661 90.1827 27.0787 91.0079 25.6917 91.0079C24.3047 91.0079 23.0754 89.9165 22.0036 87.7336C20.9318 85.5508 20.1438 82.2765 19.6394 77.9108L15.4784 82.0635C16.0669 87.1746 16.981 91.3007 18.2209 94.4419C19.4608 97.5831 21.0684 99.7393 23.0438 100.911V109.216ZM25.3135 128.383C21.825 128.383 18.5466 126.706 15.4784 123.351C12.4102 119.997 9.74134 115.445 7.47172 109.695C5.2021 103.945 3.40532 97.1838 2.08138 89.4107C0.757431 81.6376 0.095459 73.3321 0.095459 64.4942C0.095459 55.6563 0.757431 47.3508 2.08138 39.5778C3.40532 31.8047 5.2021 25.0431 7.47172 19.2932C9.74134 13.5432 12.4102 8.99119 15.4784 5.63705C18.5466 2.28291 21.825 0.605835 25.3135 0.605835C28.8019 0.605835 32.0803 2.28291 35.1485 5.63705C38.2167 8.99119 40.8856 13.5432 43.1552 19.2932C45.4248 25.0431 47.2216 31.8047 48.5455 39.5778C49.8695 47.3508 50.5315 55.6563 50.5315 64.4942C50.5315 73.3321 49.8695 81.6376 48.5455 89.4107C47.2216 97.1838 45.4248 103.945 43.1552 109.695C40.8856 115.445 38.2167 119.997 35.1485 123.351C32.0803 126.706 28.8019 128.383 25.3135 128.383Z" fill="white"/>
</svg>
